<mxfile host="app.diagrams.net" agent="Mozilla/5.0 (Windows NT 10.0; Win64; x64) AppleWebKit/537.36 (KHTML, like Gecko) Chrome/135.0.0.0 Safari/537.36 OPR/120.0.0.0" version="28.2.1">
  <diagram id="z-PUYhsLJ5TQfkCh3qeF" name="Page-1">
    <mxGraphModel dx="970" dy="1102" grid="1" gridSize="10" guides="1" tooltips="1" connect="1" arrows="1" fold="1" page="1" pageScale="1" pageWidth="850" pageHeight="1100" math="0" shadow="0">
      <root>
        <mxCell id="0" />
        <mxCell id="1" parent="0" />
        <mxCell id="Tnn8jA1xSSA01XFPJrdt-30" value="Estudiantes" style="swimlane;horizontal=0;whiteSpace=wrap;html=1;" vertex="1" parent="1">
          <mxGeometry x="879" y="40" width="1911" height="220" as="geometry" />
        </mxCell>
        <mxCell id="Tnn8jA1xSSA01XFPJrdt-38" value="Selecciona curso &#xa;y hace clic en pagar" style="whiteSpace=wrap;strokeWidth=2;" vertex="1" parent="Tnn8jA1xSSA01XFPJrdt-30">
          <mxGeometry x="145.5" y="73" width="175" height="54" as="geometry" />
        </mxCell>
        <mxCell id="Tnn8jA1xSSA01XFPJrdt-40" style="edgeStyle=orthogonalEdgeStyle;rounded=0;orthogonalLoop=1;jettySize=auto;html=1;entryX=0;entryY=0.5;entryDx=0;entryDy=0;" edge="1" parent="Tnn8jA1xSSA01XFPJrdt-30" source="Tnn8jA1xSSA01XFPJrdt-36" target="Tnn8jA1xSSA01XFPJrdt-38">
          <mxGeometry relative="1" as="geometry" />
        </mxCell>
        <mxCell id="Tnn8jA1xSSA01XFPJrdt-36" value="" style="ellipse;whiteSpace=wrap;html=1;aspect=fixed;" vertex="1" parent="Tnn8jA1xSSA01XFPJrdt-30">
          <mxGeometry x="81" y="82" width="36" height="36" as="geometry" />
        </mxCell>
        <mxCell id="Tnn8jA1xSSA01XFPJrdt-92" style="edgeStyle=orthogonalEdgeStyle;rounded=0;orthogonalLoop=1;jettySize=auto;html=1;endArrow=none;endFill=0;dashed=1;dashPattern=1 4;" edge="1" parent="Tnn8jA1xSSA01XFPJrdt-30" source="Tnn8jA1xSSA01XFPJrdt-52" target="Tnn8jA1xSSA01XFPJrdt-91">
          <mxGeometry relative="1" as="geometry" />
        </mxCell>
        <mxCell id="Tnn8jA1xSSA01XFPJrdt-52" value="Ingresa credenciales y MFA" style="whiteSpace=wrap;strokeWidth=2;" vertex="1" parent="Tnn8jA1xSSA01XFPJrdt-30">
          <mxGeometry x="431" y="74" width="175" height="54" as="geometry" />
        </mxCell>
        <mxCell id="Tnn8jA1xSSA01XFPJrdt-67" value="Rellena el formulario" style="whiteSpace=wrap;strokeWidth=2;" vertex="1" parent="Tnn8jA1xSSA01XFPJrdt-30">
          <mxGeometry x="701" y="73" width="175" height="54" as="geometry" />
        </mxCell>
        <mxCell id="Tnn8jA1xSSA01XFPJrdt-91" value="Accion con proceso&lt;div&gt;de auditoria&lt;/div&gt;" style="shape=parallelogram;perimeter=parallelogramPerimeter;whiteSpace=wrap;html=1;fixedSize=1;fontSize=9;" vertex="1" parent="Tnn8jA1xSSA01XFPJrdt-30">
          <mxGeometry x="459" y="17" width="119" height="40" as="geometry" />
        </mxCell>
        <mxCell id="Tnn8jA1xSSA01XFPJrdt-106" style="edgeStyle=orthogonalEdgeStyle;rounded=0;orthogonalLoop=1;jettySize=auto;html=1;entryX=0;entryY=0.5;entryDx=0;entryDy=0;" edge="1" parent="Tnn8jA1xSSA01XFPJrdt-30" source="Tnn8jA1xSSA01XFPJrdt-101" target="Tnn8jA1xSSA01XFPJrdt-105">
          <mxGeometry relative="1" as="geometry" />
        </mxCell>
        <mxCell id="Tnn8jA1xSSA01XFPJrdt-101" value="Se informa al usuario" style="whiteSpace=wrap;strokeWidth=2;" vertex="1" parent="Tnn8jA1xSSA01XFPJrdt-30">
          <mxGeometry x="1243.5" y="73" width="175" height="54" as="geometry" />
        </mxCell>
        <mxCell id="Tnn8jA1xSSA01XFPJrdt-109" style="edgeStyle=orthogonalEdgeStyle;rounded=0;orthogonalLoop=1;jettySize=auto;html=1;entryX=0;entryY=0.5;entryDx=0;entryDy=0;" edge="1" parent="Tnn8jA1xSSA01XFPJrdt-30" source="Tnn8jA1xSSA01XFPJrdt-103" target="Tnn8jA1xSSA01XFPJrdt-108">
          <mxGeometry relative="1" as="geometry" />
        </mxCell>
        <mxCell id="Tnn8jA1xSSA01XFPJrdt-103" value="Recibe confirmación y &#xa;acceso al curso" style="whiteSpace=wrap;strokeWidth=2;" vertex="1" parent="Tnn8jA1xSSA01XFPJrdt-30">
          <mxGeometry x="1541" y="74" width="175" height="54" as="geometry" />
        </mxCell>
        <mxCell id="Tnn8jA1xSSA01XFPJrdt-105" value="" style="ellipse;whiteSpace=wrap;html=1;aspect=fixed;" vertex="1" parent="Tnn8jA1xSSA01XFPJrdt-30">
          <mxGeometry x="1461" y="83" width="36" height="36" as="geometry" />
        </mxCell>
        <mxCell id="Tnn8jA1xSSA01XFPJrdt-108" value="" style="ellipse;whiteSpace=wrap;html=1;aspect=fixed;" vertex="1" parent="Tnn8jA1xSSA01XFPJrdt-30">
          <mxGeometry x="1751" y="82" width="36" height="36" as="geometry" />
        </mxCell>
        <mxCell id="Tnn8jA1xSSA01XFPJrdt-32" value="EdukIT" style="swimlane;horizontal=0;whiteSpace=wrap;html=1;startSize=23;" vertex="1" parent="1">
          <mxGeometry x="879" y="460" width="1911" height="200" as="geometry" />
        </mxCell>
        <mxCell id="Tnn8jA1xSSA01XFPJrdt-71" style="edgeStyle=orthogonalEdgeStyle;rounded=0;orthogonalLoop=1;jettySize=auto;html=1;entryX=0;entryY=0.75;entryDx=0;entryDy=0;exitX=0.5;exitY=1;exitDx=0;exitDy=0;" edge="1" parent="Tnn8jA1xSSA01XFPJrdt-32" source="Tnn8jA1xSSA01XFPJrdt-39" target="Tnn8jA1xSSA01XFPJrdt-61">
          <mxGeometry relative="1" as="geometry">
            <Array as="points">
              <mxPoint x="381" y="141" />
            </Array>
          </mxGeometry>
        </mxCell>
        <mxCell id="Tnn8jA1xSSA01XFPJrdt-72" value="Si" style="edgeLabel;html=1;align=center;verticalAlign=middle;resizable=0;points=[];" vertex="1" connectable="0" parent="Tnn8jA1xSSA01XFPJrdt-71">
          <mxGeometry x="-0.6431" y="-2" relative="1" as="geometry">
            <mxPoint x="-1" y="-13" as="offset" />
          </mxGeometry>
        </mxCell>
        <mxCell id="Tnn8jA1xSSA01XFPJrdt-39" value="X" style="rhombus;whiteSpace=wrap;html=1;" vertex="1" parent="Tnn8jA1xSSA01XFPJrdt-32">
          <mxGeometry x="341" y="55" width="80" height="80" as="geometry" />
        </mxCell>
        <mxCell id="Tnn8jA1xSSA01XFPJrdt-61" value="Presenta formulario de pago con token único" style="whiteSpace=wrap;strokeWidth=2;" vertex="1" parent="Tnn8jA1xSSA01XFPJrdt-32">
          <mxGeometry x="701" y="100" width="175" height="54" as="geometry" />
        </mxCell>
        <mxCell id="Tnn8jA1xSSA01XFPJrdt-33" value="Proveedor de Pagos" style="swimlane;horizontal=0;whiteSpace=wrap;html=1;" vertex="1" parent="1">
          <mxGeometry x="879" y="660" width="1911" height="170" as="geometry" />
        </mxCell>
        <mxCell id="Tnn8jA1xSSA01XFPJrdt-73" value="Procesa la transacción" style="whiteSpace=wrap;strokeWidth=2;" vertex="1" parent="Tnn8jA1xSSA01XFPJrdt-33">
          <mxGeometry x="870" y="73" width="175" height="54" as="geometry" />
        </mxCell>
        <mxCell id="Tnn8jA1xSSA01XFPJrdt-35" value="Agente de Seguridad" style="swimlane;horizontal=0;whiteSpace=wrap;html=1;startSize=23;" vertex="1" parent="1">
          <mxGeometry x="879" y="260" width="1911" height="200" as="geometry" />
        </mxCell>
        <mxCell id="Tnn8jA1xSSA01XFPJrdt-57" value="X" style="rhombus;whiteSpace=wrap;html=1;" vertex="1" parent="Tnn8jA1xSSA01XFPJrdt-35">
          <mxGeometry x="606" y="70" width="80" height="80" as="geometry" />
        </mxCell>
        <mxCell id="Tnn8jA1xSSA01XFPJrdt-113" value="Filtrar tráfico con WAF" style="whiteSpace=wrap;strokeWidth=2;" vertex="1" parent="Tnn8jA1xSSA01XFPJrdt-35">
          <mxGeometry x="293.5" y="70" width="175" height="54" as="geometry" />
        </mxCell>
        <mxCell id="Tnn8jA1xSSA01XFPJrdt-94" value="Accion con proceso&lt;div&gt;de auditoria&lt;/div&gt;" style="shape=parallelogram;perimeter=parallelogramPerimeter;whiteSpace=wrap;html=1;fixedSize=1;fontSize=9;" vertex="1" parent="Tnn8jA1xSSA01XFPJrdt-35">
          <mxGeometry x="1069" y="240" width="119" height="40" as="geometry" />
        </mxCell>
        <mxCell id="Tnn8jA1xSSA01XFPJrdt-88" value="Valida la firma de respuesta" style="whiteSpace=wrap;strokeWidth=2;" vertex="1" parent="Tnn8jA1xSSA01XFPJrdt-35">
          <mxGeometry x="1041" y="296" width="175" height="54" as="geometry" />
        </mxCell>
        <mxCell id="Tnn8jA1xSSA01XFPJrdt-96" style="edgeStyle=orthogonalEdgeStyle;rounded=0;orthogonalLoop=1;jettySize=auto;html=1;endArrow=none;endFill=0;dashed=1;dashPattern=1 4;entryX=0.5;entryY=1;entryDx=0;entryDy=0;exitX=0.5;exitY=0;exitDx=0;exitDy=0;" edge="1" parent="Tnn8jA1xSSA01XFPJrdt-35" source="Tnn8jA1xSSA01XFPJrdt-88" target="Tnn8jA1xSSA01XFPJrdt-94">
          <mxGeometry relative="1" as="geometry">
            <mxPoint x="1021" y="124" as="sourcePoint" />
            <mxPoint x="1021" y="100" as="targetPoint" />
          </mxGeometry>
        </mxCell>
        <mxCell id="Tnn8jA1xSSA01XFPJrdt-97" value="X" style="rhombus;whiteSpace=wrap;html=1;" vertex="1" parent="Tnn8jA1xSSA01XFPJrdt-35">
          <mxGeometry x="1291" y="283" width="80" height="80" as="geometry" />
        </mxCell>
        <mxCell id="Tnn8jA1xSSA01XFPJrdt-98" style="edgeStyle=orthogonalEdgeStyle;rounded=0;orthogonalLoop=1;jettySize=auto;html=1;entryX=0;entryY=0.5;entryDx=0;entryDy=0;" edge="1" parent="Tnn8jA1xSSA01XFPJrdt-35" source="Tnn8jA1xSSA01XFPJrdt-88" target="Tnn8jA1xSSA01XFPJrdt-97">
          <mxGeometry relative="1" as="geometry" />
        </mxCell>
        <mxCell id="Tnn8jA1xSSA01XFPJrdt-99" value="¿Aprovado?" style="edgeLabel;html=1;align=center;verticalAlign=middle;resizable=0;points=[];" vertex="1" connectable="0" parent="Tnn8jA1xSSA01XFPJrdt-98">
          <mxGeometry x="-0.0667" y="-1" relative="1" as="geometry">
            <mxPoint x="24" y="-26" as="offset" />
          </mxGeometry>
        </mxCell>
        <mxCell id="Tnn8jA1xSSA01XFPJrdt-53" style="edgeStyle=orthogonalEdgeStyle;rounded=0;orthogonalLoop=1;jettySize=auto;html=1;entryX=0.5;entryY=1;entryDx=0;entryDy=0;" edge="1" parent="1" source="Tnn8jA1xSSA01XFPJrdt-39" target="Tnn8jA1xSSA01XFPJrdt-52">
          <mxGeometry relative="1" as="geometry" />
        </mxCell>
        <mxCell id="Tnn8jA1xSSA01XFPJrdt-54" value="No" style="edgeLabel;html=1;align=center;verticalAlign=middle;resizable=0;points=[];" vertex="1" connectable="0" parent="Tnn8jA1xSSA01XFPJrdt-53">
          <mxGeometry x="-0.7013" y="2" relative="1" as="geometry">
            <mxPoint y="-8" as="offset" />
          </mxGeometry>
        </mxCell>
        <mxCell id="Tnn8jA1xSSA01XFPJrdt-56" style="edgeStyle=orthogonalEdgeStyle;rounded=0;orthogonalLoop=1;jettySize=auto;html=1;entryX=0.5;entryY=0;entryDx=0;entryDy=0;jumpStyle=line;" edge="1" parent="1" source="Tnn8jA1xSSA01XFPJrdt-52" target="Tnn8jA1xSSA01XFPJrdt-57">
          <mxGeometry relative="1" as="geometry">
            <mxPoint x="1517.5" y="533" as="targetPoint" />
            <Array as="points">
              <mxPoint x="1525" y="141" />
            </Array>
          </mxGeometry>
        </mxCell>
        <mxCell id="Tnn8jA1xSSA01XFPJrdt-58" value="¿Autenticación&amp;nbsp;&lt;div&gt;válida?&lt;/div&gt;" style="edgeLabel;html=1;align=center;verticalAlign=middle;resizable=0;points=[];" vertex="1" connectable="0" parent="Tnn8jA1xSSA01XFPJrdt-56">
          <mxGeometry x="0.8182" y="-1" relative="1" as="geometry">
            <mxPoint x="-55" y="23" as="offset" />
          </mxGeometry>
        </mxCell>
        <mxCell id="Tnn8jA1xSSA01XFPJrdt-65" style="edgeStyle=orthogonalEdgeStyle;rounded=0;orthogonalLoop=1;jettySize=auto;html=1;entryX=0;entryY=0.25;entryDx=0;entryDy=0;exitX=0.5;exitY=1;exitDx=0;exitDy=0;" edge="1" parent="1" source="Tnn8jA1xSSA01XFPJrdt-57" target="Tnn8jA1xSSA01XFPJrdt-61">
          <mxGeometry relative="1" as="geometry">
            <Array as="points">
              <mxPoint x="1525" y="574" />
            </Array>
          </mxGeometry>
        </mxCell>
        <mxCell id="Tnn8jA1xSSA01XFPJrdt-66" value="Si" style="edgeLabel;html=1;align=center;verticalAlign=middle;resizable=0;points=[];" vertex="1" connectable="0" parent="Tnn8jA1xSSA01XFPJrdt-65">
          <mxGeometry x="-0.7126" y="2" relative="1" as="geometry">
            <mxPoint x="13" y="-27" as="offset" />
          </mxGeometry>
        </mxCell>
        <mxCell id="Tnn8jA1xSSA01XFPJrdt-68" style="edgeStyle=orthogonalEdgeStyle;rounded=0;orthogonalLoop=1;jettySize=auto;html=1;entryX=0.5;entryY=1;entryDx=0;entryDy=0;" edge="1" parent="1" source="Tnn8jA1xSSA01XFPJrdt-61" target="Tnn8jA1xSSA01XFPJrdt-67">
          <mxGeometry relative="1" as="geometry" />
        </mxCell>
        <mxCell id="Tnn8jA1xSSA01XFPJrdt-74" style="edgeStyle=orthogonalEdgeStyle;rounded=0;orthogonalLoop=1;jettySize=auto;html=1;" edge="1" parent="1" source="Tnn8jA1xSSA01XFPJrdt-67" target="Tnn8jA1xSSA01XFPJrdt-73">
          <mxGeometry relative="1" as="geometry">
            <Array as="points">
              <mxPoint x="1837" y="140" />
            </Array>
          </mxGeometry>
        </mxCell>
        <mxCell id="Tnn8jA1xSSA01XFPJrdt-76" style="edgeStyle=orthogonalEdgeStyle;rounded=0;orthogonalLoop=1;jettySize=auto;html=1;entryX=0.5;entryY=1;entryDx=0;entryDy=0;" edge="1" parent="1" source="Tnn8jA1xSSA01XFPJrdt-73" target="Tnn8jA1xSSA01XFPJrdt-88">
          <mxGeometry relative="1" as="geometry">
            <mxPoint x="2045" y="759.9999999999998" as="targetPoint" />
            <Array as="points">
              <mxPoint x="2008" y="760" />
            </Array>
          </mxGeometry>
        </mxCell>
        <mxCell id="Tnn8jA1xSSA01XFPJrdt-102" style="edgeStyle=orthogonalEdgeStyle;rounded=0;orthogonalLoop=1;jettySize=auto;html=1;entryX=0.5;entryY=1;entryDx=0;entryDy=0;" edge="1" parent="1" source="Tnn8jA1xSSA01XFPJrdt-97" target="Tnn8jA1xSSA01XFPJrdt-101">
          <mxGeometry relative="1" as="geometry" />
        </mxCell>
        <mxCell id="Tnn8jA1xSSA01XFPJrdt-104" value="No" style="edgeLabel;html=1;align=center;verticalAlign=middle;resizable=0;points=[];" vertex="1" connectable="0" parent="Tnn8jA1xSSA01XFPJrdt-102">
          <mxGeometry x="-0.7057" y="-3" relative="1" as="geometry">
            <mxPoint x="15" y="32" as="offset" />
          </mxGeometry>
        </mxCell>
        <mxCell id="Tnn8jA1xSSA01XFPJrdt-107" style="edgeStyle=orthogonalEdgeStyle;rounded=0;orthogonalLoop=1;jettySize=auto;html=1;entryX=0.5;entryY=1;entryDx=0;entryDy=0;" edge="1" parent="1" source="Tnn8jA1xSSA01XFPJrdt-97" target="Tnn8jA1xSSA01XFPJrdt-103">
          <mxGeometry relative="1" as="geometry" />
        </mxCell>
        <mxCell id="Tnn8jA1xSSA01XFPJrdt-116" value="Si" style="edgeLabel;html=1;align=center;verticalAlign=middle;resizable=0;points=[];" vertex="1" connectable="0" parent="Tnn8jA1xSSA01XFPJrdt-107">
          <mxGeometry x="-0.8441" y="1" relative="1" as="geometry">
            <mxPoint x="-22" y="-12" as="offset" />
          </mxGeometry>
        </mxCell>
        <mxCell id="Tnn8jA1xSSA01XFPJrdt-42" style="edgeStyle=orthogonalEdgeStyle;rounded=0;orthogonalLoop=1;jettySize=auto;html=1;entryX=0.5;entryY=0;entryDx=0;entryDy=0;exitX=0.5;exitY=1;exitDx=0;exitDy=0;" edge="1" parent="1" source="Tnn8jA1xSSA01XFPJrdt-113" target="Tnn8jA1xSSA01XFPJrdt-39">
          <mxGeometry relative="1" as="geometry">
            <mxPoint x="1199.5" y="141" as="sourcePoint" />
            <mxPoint x="1243" y="291" as="targetPoint" />
            <Array as="points">
              <mxPoint x="1260" y="384" />
            </Array>
          </mxGeometry>
        </mxCell>
        <mxCell id="Tnn8jA1xSSA01XFPJrdt-43" value="¿Se encuentra&amp;nbsp;&lt;div&gt;logueado?&lt;/div&gt;" style="edgeLabel;html=1;align=center;verticalAlign=middle;resizable=0;points=[];" vertex="1" connectable="0" parent="Tnn8jA1xSSA01XFPJrdt-42">
          <mxGeometry x="0.5109" y="-2" relative="1" as="geometry">
            <mxPoint x="-61" y="41" as="offset" />
          </mxGeometry>
        </mxCell>
        <mxCell id="Tnn8jA1xSSA01XFPJrdt-115" style="edgeStyle=orthogonalEdgeStyle;rounded=0;orthogonalLoop=1;jettySize=auto;html=1;entryX=0.5;entryY=0;entryDx=0;entryDy=0;" edge="1" parent="1" source="Tnn8jA1xSSA01XFPJrdt-38" target="Tnn8jA1xSSA01XFPJrdt-113">
          <mxGeometry relative="1" as="geometry">
            <Array as="points">
              <mxPoint x="1260" y="140" />
            </Array>
          </mxGeometry>
        </mxCell>
      </root>
    </mxGraphModel>
  </diagram>
</mxfile>
